<?xml version="1.0" encoding="UTF-8"?>
<!DOCTYPE svg PUBLIC "-//W3C//DTD SVG 1.1//EN" "http://www.w3.org/Graphics/SVG/1.1/DTD/svg11.dtd">
<svg xmlns="http://www.w3.org/2000/svg" version="1.1" width="500px" height="500px" style="shape-rendering:geometricPrecision; text-rendering:geometricPrecision; image-rendering:optimizeQuality; fill-rule:evenodd; clip-rule:evenodd" xmlns:xlink="http://www.w3.org/1999/xlink">
<g><path style="opacity:1" fill="#852f7f" d="M 257.5,13.5 C 263.639,19.1597 269.305,25.1597 274.5,31.5C 273.624,31.3691 272.957,31.7025 272.5,32.5C 284.86,51.6837 288.026,72.3504 282,94.5C 279.454,102.797 276.121,110.797 272,118.5C 268.833,123 265,126.833 260.5,130C 242.994,139.921 225.327,149.587 207.5,159C 179.067,179.078 168.9,206.245 177,240.5C 179.243,255.076 183.243,269.076 189,282.5C 204.946,309.62 224.446,333.953 247.5,355.5C 247.167,356.167 246.833,356.833 246.5,357.5C 244.205,358.475 242.205,359.808 240.5,361.5C 237.054,362.988 234.221,365.322 232,368.5C 223.679,370.305 215.679,373.638 208,378.5C 203.538,379.319 199.372,380.819 195.5,383C 196.056,383.383 196.389,383.883 196.5,384.5C 195.833,384.5 195.167,384.5 194.5,384.5C 193.292,383.218 191.958,383.218 190.5,384.5C 190.863,385.183 191.196,385.85 191.5,386.5C 190.833,386.5 190.167,386.5 189.5,386.5C 189.209,385.351 188.376,384.684 187,384.5C 183.34,384.432 180.507,385.765 178.5,388.5C 178.167,388.5 177.833,388.5 177.5,388.5C 177.389,387.883 177.056,387.383 176.5,387C 173.833,386.333 171.167,386.333 168.5,387C 167.944,387.383 167.611,387.883 167.5,388.5C 166.833,388.5 166.167,388.5 165.5,388.5C 160.167,387.167 154.833,387.167 149.5,388.5C 148.167,388.5 146.833,388.5 145.5,388.5C 144.666,387.252 143.333,386.585 141.5,386.5C 139.667,386.585 138.334,387.252 137.5,388.5C 137.167,388.5 136.833,388.5 136.5,388.5C 134.786,387.262 132.786,386.595 130.5,386.5C 130.167,386.5 129.833,386.5 129.5,386.5C 129.53,385.503 129.03,384.836 128,384.5C 116.062,381.854 104.562,378.021 93.5,373C 90.6669,370.609 87.5003,368.776 84,367.5C 83.5357,368.094 83.369,368.761 83.5,369.5C 83.1667,369.5 82.8333,369.5 82.5,369.5C 82.1742,367.339 81.1742,365.506 79.5,364C 75.1765,360.839 70.5098,358.339 65.5,356.5C 54.2755,346.45 43.1089,336.117 32,325.5C 24.2589,316.602 16.7589,307.602 9.5,298.5C 9.35055,297.448 9.51722,296.448 10,295.5C 60.1117,333.14 116.278,355.64 178.5,363C 199.824,364.72 220.824,363.053 241.5,358C 210.138,358.5 180.471,351.833 152.5,338C 124.806,322.15 104.806,299.65 92.5,270.5C 92.4456,268.368 91.4456,267.035 89.5,266.5C 89.5,266.167 89.5,265.833 89.5,265.5C 87.5724,258.88 85.739,252.214 84,245.5C 83.6174,244.944 83.1174,244.611 82.5,244.5C 82.5,243.833 82.5,243.167 82.5,242.5C 81.3219,235.578 79.6552,228.911 77.5,222.5C 76.5579,214.195 75.8912,205.861 75.5,197.5C 75.3335,185.495 75.5001,173.495 76,161.5C 76.21,159.942 76.71,158.609 77.5,157.5C 97.364,213.728 127.364,263.895 167.5,308C 181.743,321.916 197.41,333.916 214.5,344C 220.617,347.239 226.95,349.572 233.5,351C 181.666,321.868 151.832,277.702 144,218.5C 138.929,175.814 154.429,142.981 190.5,120C 201.221,114.247 212.221,109.247 223.5,105C 237.537,93.6198 246.703,79.1198 251,61.5C 255.04,45.6048 257.207,29.6048 257.5,13.5 Z"/></g>
<g><path style="opacity:0.004" fill="#fefffe" d="M 235.5,17.5 C 234.833,16.1667 234.833,16.1667 235.5,17.5 Z"/></g>
<g><path style="opacity:0.004" fill="#fefffe" d="M 223.5,31.5 C 222.833,30.1667 222.833,30.1667 223.5,31.5 Z"/></g>
<g><path style="opacity:1" fill="#5f1d57" d="M 274.5,31.5 C 286.422,46.2817 296.588,62.2817 305,79.5C 307.533,86.5507 310.033,93.5507 312.5,100.5C 313.137,116.091 308.637,130.091 299,142.5C 291.443,149.358 283.61,155.858 275.5,162C 260.328,171.752 245.328,181.752 230.5,192C 216.663,203.493 212.163,217.993 217,235.5C 223.488,253.616 231.155,271.283 240,288.5C 243.742,296.645 246.909,304.978 249.5,313.5C 254.215,323.944 255.715,334.944 254,346.5C 252.3,350.004 250.134,353.004 247.5,355.5C 224.446,333.953 204.946,309.62 189,282.5C 183.243,269.076 179.243,255.076 177,240.5C 168.9,206.245 179.067,179.078 207.5,159C 225.327,149.587 242.994,139.921 260.5,130C 265,126.833 268.833,123 272,118.5C 276.121,110.797 279.454,102.797 282,94.5C 288.026,72.3504 284.86,51.6837 272.5,32.5C 272.957,31.7025 273.624,31.3691 274.5,31.5 Z"/></g>
<g><path style="opacity:0.655" fill="#e6d1e4" d="M 306.5,63.5 C 305.761,63.631 305.094,63.4643 304.5,63C 294.661,52.3281 284.661,41.8281 274.5,31.5C 269.305,25.1597 263.639,19.1597 257.5,13.5C 254.854,10.1877 251.854,7.18772 248.5,4.5C 242.915,12.9217 236.749,20.9217 230,28.5C 219.258,38.7389 209.091,49.4055 199.5,60.5C 198.893,60.3764 198.56,60.0431 198.5,59.5C 198.525,56.821 199.858,55.4877 202.5,55.5C 202.351,54.448 202.517,53.448 203,52.5C 210.739,44.9465 217.572,37.9465 223.5,31.5C 225.175,29.8072 226.508,27.8072 227.5,25.5C 228.425,24.3595 229.259,24.3595 230,25.5C 231.129,22.2064 232.962,19.5397 235.5,17.5C 237.461,15.0365 239.628,12.7032 242,10.5C 243,7.83333 244,5.16667 245,2.5C 247.912,0.994971 250.245,1.66164 252,4.5C 252.333,4.16667 252.667,3.83333 253,3.5C 255.045,6.42333 257.212,9.25667 259.5,12C 260.448,12.4828 261.448,12.6495 262.5,12.5C 262.351,13.552 262.517,14.552 263,15.5C 268.311,19.655 272.811,23.9883 276.5,28.5C 277.386,29.325 277.719,30.325 277.5,31.5C 280.385,32.545 282.552,34.545 284,37.5C 284.667,36.1667 285.333,36.1667 286,37.5C 287.152,39.6487 288.652,41.482 290.5,43C 289.833,43.3333 289.167,43.6667 288.5,44C 291.196,45.3509 293.53,47.1843 295.5,49.5C 297.917,53.604 300.75,56.604 304,58.5C 304.785,60.286 305.951,61.786 307.5,63C 307.272,63.3988 306.938,63.5654 306.5,63.5 Z"/></g>
<g><path style="opacity:0.094" fill="#e8d3e5" d="M 196.5,61.5 C 197.097,61.7352 197.43,62.2352 197.5,63C 194.977,68.0209 191.31,71.8543 186.5,74.5C 187.128,71.91 188.295,69.5766 190,67.5C 190.333,67.8333 190.667,68.1667 191,68.5C 191.333,67.5 191.667,66.5 192,65.5C 193.992,64.6719 195.492,63.3386 196.5,61.5 Z"/></g>
<g><path style="opacity:0.22" fill="#efe1e8" d="M 307.5,64.5 C 311.208,65.9376 313.542,68.6043 314.5,72.5C 310.812,71.1386 308.479,68.4719 307.5,64.5 Z"/></g>
<g><path style="opacity:0.004" fill="#fefffe" d="M 184.5,76.5 C 183.833,75.1667 183.833,75.1667 184.5,76.5 Z"/></g>
<g><path style="opacity:0.439" fill="#e9dae8" d="M 316.5,74.5 C 318.485,74.8586 319.151,75.692 318.5,77C 319.743,78.1545 320.743,79.4878 321.5,81C 323.044,81.2896 324.377,81.9563 325.5,83C 325.167,83.3333 324.833,83.6667 324.5,84C 326.7,86.8745 329.034,89.7078 331.5,92.5C 330.448,92.6495 329.448,92.4828 328.5,92C 323.794,86.7335 319.461,81.2335 315.5,75.5C 315.624,74.8933 315.957,74.56 316.5,74.5 Z"/></g>
<g><path style="opacity:0.298" fill="#eadbe9" d="M 332.5,93.5 C 333.404,94.209 333.737,95.209 333.5,96.5C 332.5,96.5 331.5,96.5 330.5,96.5C 330.285,94.8212 330.952,93.8212 332.5,93.5 Z"/></g>
<g><path style="opacity:0.004" fill="#fefffe" d="M 164.5,103.5 C 163.833,102.167 163.833,102.167 164.5,103.5 Z"/></g>
<g><path style="opacity:0.925" fill="#e7d0e4" d="M 186.5,74.5 C 181.522,83.7596 175.522,92.4263 168.5,100.5C 165.837,107.168 162.171,113.168 157.5,118.5C 154.677,126.8 151.344,134.8 147.5,142.5C 146.624,143.251 145.624,143.751 144.5,144C 145.337,145.011 145.67,146.178 145.5,147.5C 144.5,147.5 143.5,147.5 142.5,147.5C 145.833,141.108 148.667,133.775 151,125.5C 151.317,123.699 151.984,123.366 153,124.5C 156.569,117.232 160.402,110.232 164.5,103.5C 167.43,99.0303 170.263,94.3637 173,89.5C 175.977,87.2866 177.81,84.7866 178.5,82C 180.191,79.7358 182.191,77.9025 184.5,76.5C 185.167,75.8333 185.833,75.1667 186.5,74.5 Z"/></g>
<g><path style="opacity:1" fill="#f5ed7f" d="M 312.5,100.5 C 316.897,108.438 320.231,116.771 322.5,125.5C 322.439,131.804 323.439,137.804 325.5,143.5C 331.083,151.919 337.916,159.252 346,165.5C 348.18,169.414 347.846,173.081 345,176.5C 342.667,178.5 340.333,180.5 338,182.5C 337.333,184.833 337.333,187.167 338,189.5C 343.059,194.803 342.559,199.47 336.5,203.5C 339.242,205.933 340.075,208.933 339,212.5C 336.162,214.308 333.995,216.642 332.5,219.5C 340.567,229.894 338.901,238.228 327.5,244.5C 310.361,244.794 293.361,245.128 276.5,245.5C 269.662,251.829 264.829,259.495 262,268.5C 257.463,283.582 253.296,298.582 249.5,313.5C 246.909,304.978 243.742,296.645 240,288.5C 231.155,271.283 223.488,253.616 217,235.5C 212.163,217.993 216.663,203.493 230.5,192C 245.328,181.752 260.328,171.752 275.5,162C 283.61,155.858 291.443,149.358 299,142.5C 308.637,130.091 313.137,116.091 312.5,100.5 Z"/></g>
<g><path style="opacity:0.008" fill="#a8a8a8" d="M 341.5,109.5 C 341.369,108.761 341.536,108.094 342,107.5C 342.692,108.437 342.525,109.103 341.5,109.5 Z"/></g>
<g><path style="opacity:0.004" fill="#fe00ff" d="M 347.5,120.5 C 348.833,121.167 348.833,121.167 347.5,120.5 Z"/></g>
<g><path style="opacity:0.541" fill="#e4cae1" d="M 333.5,96.5 C 334.816,98.7158 336.483,100.716 338.5,102.5C 339.661,104.885 340.661,107.219 341.5,109.5C 343.694,113.421 345.694,117.421 347.5,121.5C 348.953,122.849 349.953,124.515 350.5,126.5C 349.022,126.762 347.689,126.429 346.5,125.5C 342.492,115.983 337.825,106.817 332.5,98C 333.056,97.6174 333.389,97.1174 333.5,96.5 Z"/></g>
<g><path style="opacity:0.925" fill="#e6d1e4" d="M 350.5,127.5 C 351.441,131.551 352.608,135.885 354,140.5C 354.333,139.833 354.667,139.167 355,138.5C 355.352,140.247 355.852,141.914 356.5,143.5C 354.226,144.952 352.726,144.285 352,141.5C 351.067,137.267 349.9,133.1 348.5,129C 348.836,127.97 349.503,127.47 350.5,127.5 Z"/></g>
<g><path style="opacity:1" fill="#d5b38b" d="M 322.5,125.5 C 323.989,129.236 324.656,133.236 324.5,137.5C 329.737,136.765 332.904,133.765 334,128.5C 334.358,134.437 331.691,138.437 326,140.5C 325.517,141.448 325.351,142.448 325.5,143.5C 323.439,137.804 322.439,131.804 322.5,125.5 Z"/></g>
<g><path style="opacity:0.004" fill="#f5edf4" d="M 356.5,145.5 C 357.234,146.708 357.567,148.041 357.5,149.5C 356.5,149.5 355.5,149.5 354.5,149.5C 354.157,147.517 354.824,146.183 356.5,145.5 Z"/></g>
<g><path style="opacity:0.222" fill="#fbf7fa" d="M 78.5,154.5 C 76.9382,154.733 75.6049,155.4 74.5,156.5C 74.2865,154.856 74.6198,153.356 75.5,152C 77.4894,151.481 78.4894,152.314 78.5,154.5 Z"/></g>
<g><path style="opacity:0.369" fill="#e8d3e6" d="M 142.5,148.5 C 143.497,148.47 144.164,148.97 144.5,150C 143.793,153.2 142.96,156.367 142,159.5C 141.617,160.056 141.117,160.389 140.5,160.5C 141.27,157.635 141.27,154.468 140.5,151C 140.639,149.699 141.305,148.866 142.5,148.5 Z"/></g>
<g><path style="opacity:0.996" fill="#e2c5db" d="M 86.5,153.5 C 89.9989,153.633 93.6656,153.8 97.5,154C 94.9644,154.186 92.631,154.686 90.5,155.5C 89.4324,156.434 88.099,156.768 86.5,156.5C 85.0222,156.762 83.6888,156.429 82.5,155.5C 83.9492,154.828 85.2825,154.161 86.5,153.5 Z"/></g>
<g><path style="opacity:0.106" fill="#ebdbe9" d="M 422.5,158.5 C 420.718,157.009 419.052,155.342 417.5,153.5C 421.439,152.208 423.105,153.875 422.5,158.5 Z"/></g>
<g><path style="opacity:1" fill="#a5589e" d="M 257.5,13.5 C 257.207,29.6048 255.04,45.6048 251,61.5C 246.703,79.1198 237.537,93.6198 223.5,105C 212.221,109.247 201.221,114.247 190.5,120C 154.429,142.981 138.929,175.814 144,218.5C 151.832,277.702 181.666,321.868 233.5,351C 226.95,349.572 220.617,347.239 214.5,344C 197.41,333.916 181.743,321.916 167.5,308C 127.364,263.895 97.364,213.728 77.5,157.5C 80.7131,157.81 83.7131,157.477 86.5,156.5C 88.099,156.768 89.4324,156.434 90.5,155.5C 90.8333,155.5 91.1667,155.5 91.5,155.5C 92.9807,157.247 94.9807,158.414 97.5,159C 111.7,160.467 125.367,163.967 138.5,169.5C 139.562,168.575 139.562,167.575 138.5,166.5C 138.259,164.114 138.925,162.114 140.5,160.5C 141.117,160.389 141.617,160.056 142,159.5C 142.96,156.367 143.793,153.2 144.5,150C 144.164,148.97 143.497,148.47 142.5,148.5C 142.5,148.167 142.5,147.833 142.5,147.5C 143.5,147.5 144.5,147.5 145.5,147.5C 145.67,146.178 145.337,145.011 144.5,144C 145.624,143.751 146.624,143.251 147.5,142.5C 151.344,134.8 154.677,126.8 157.5,118.5C 162.171,113.168 165.837,107.168 168.5,100.5C 175.522,92.4263 181.522,83.7596 186.5,74.5C 191.31,71.8543 194.977,68.0209 197.5,63C 197.43,62.2352 197.097,61.7352 196.5,61.5C 196.5,60.1667 197.167,59.5 198.5,59.5C 198.56,60.0431 198.893,60.3764 199.5,60.5C 209.091,49.4055 219.258,38.7389 230,28.5C 236.749,20.9217 242.915,12.9217 248.5,4.5C 251.854,7.18772 254.854,10.1877 257.5,13.5 Z"/></g>
<g><path style="opacity:1" fill="#a5589e" d="M 274.5,31.5 C 284.661,41.8281 294.661,52.3281 304.5,63C 305.094,63.4643 305.761,63.631 306.5,63.5C 306.5,64.1667 306.833,64.5 307.5,64.5C 308.479,68.4719 310.812,71.1386 314.5,72.5C 315.167,73.1667 315.833,73.8333 316.5,74.5C 315.957,74.56 315.624,74.8933 315.5,75.5C 319.461,81.2335 323.794,86.7335 328.5,92C 329.448,92.4828 330.448,92.6495 331.5,92.5C 332.167,92.5 332.5,92.8333 332.5,93.5C 330.952,93.8212 330.285,94.8212 330.5,96.5C 331.5,96.5 332.5,96.5 333.5,96.5C 333.389,97.1174 333.056,97.6174 332.5,98C 337.825,106.817 342.492,115.983 346.5,125.5C 347.689,126.429 349.022,126.762 350.5,126.5C 350.5,126.833 350.5,127.167 350.5,127.5C 349.503,127.47 348.836,127.97 348.5,129C 349.9,133.1 351.067,137.267 352,141.5C 352.726,144.285 354.226,144.952 356.5,143.5C 356.5,144.167 356.5,144.833 356.5,145.5C 354.824,146.183 354.157,147.517 354.5,149.5C 355.5,149.5 356.5,149.5 357.5,149.5C 358.089,151.352 358.756,153.185 359.5,155C 359.272,155.399 358.938,155.565 358.5,155.5C 357.307,155.97 356.64,156.97 356.5,158.5C 356.936,161.179 357.436,163.845 358,166.5C 358.383,167.056 358.883,167.389 359.5,167.5C 359.5,167.833 359.5,168.167 359.5,168.5C 359.369,169.376 359.702,170.043 360.5,170.5C 366.068,168.813 371.401,166.647 376.5,164C 384.415,162.752 391.749,160.252 398.5,156.5C 404.564,157.47 410.564,156.97 416.5,155C 413.305,154.819 410.305,154.319 407.5,153.5C 410.833,153.5 414.167,153.5 417.5,153.5C 419.052,155.342 420.718,157.009 422.5,158.5C 422.5,160.167 422.5,161.833 422.5,163.5C 421.167,177.5 421.167,191.5 422.5,205.5C 422.5,207.5 422.5,209.5 422.5,211.5C 421.351,211.791 420.684,212.624 420.5,214C 420.684,215.376 421.351,216.209 422.5,216.5C 422.672,217.492 422.338,218.158 421.5,218.5C 421.565,218.062 421.399,217.728 421,217.5C 420.292,218.381 419.458,219.047 418.5,219.5C 420.866,198.853 421.033,178.187 419,157.5C 400.121,204.629 375.121,247.962 344,287.5C 318.981,317.705 288.481,340.371 252.5,355.5C 293.6,358.101 330.933,347.601 364.5,324C 382.587,309.931 395.921,292.431 404.5,271.5C 404.5,272.5 404.5,273.5 404.5,274.5C 409.944,275.108 414.944,274.442 419.5,272.5C 421.833,272.5 424.167,272.5 426.5,272.5C 425.737,273.268 424.737,273.768 423.5,274C 432.237,276.826 441.237,278.826 450.5,280C 456.58,282.36 462.747,284.527 469,286.5C 469.765,286.43 470.265,286.097 470.5,285.5C 470.833,285.5 471.167,285.5 471.5,285.5C 475.112,290.757 480.112,294.09 486.5,295.5C 487.278,296.156 487.944,296.989 488.5,298C 488.43,298.765 488.097,299.265 487.5,299.5C 487.631,298.761 487.464,298.094 487,297.5C 438.382,325.748 386.548,345.915 331.5,358C 306.338,362.236 281.172,362.403 256,358.5C 254.93,358.528 254.097,358.861 253.5,359.5C 251.207,357.805 248.873,357.138 246.5,357.5C 246.833,356.833 247.167,356.167 247.5,355.5C 250.134,353.004 252.3,350.004 254,346.5C 255.715,334.944 254.215,323.944 249.5,313.5C 253.296,298.582 257.463,283.582 262,268.5C 264.829,259.495 269.662,251.829 276.5,245.5C 292.836,245.974 309.169,246.14 325.5,246C 326.416,245.722 327.082,245.222 327.5,244.5C 338.901,238.228 340.567,229.894 332.5,219.5C 333.995,216.642 336.162,214.308 339,212.5C 340.075,208.933 339.242,205.933 336.5,203.5C 342.559,199.47 343.059,194.803 338,189.5C 337.333,187.167 337.333,184.833 338,182.5C 340.333,180.5 342.667,178.5 345,176.5C 347.846,173.081 348.18,169.414 346,165.5C 337.916,159.252 331.083,151.919 325.5,143.5C 325.351,142.448 325.517,141.448 326,140.5C 331.691,138.437 334.358,134.437 334,128.5C 332.904,133.765 329.737,136.765 324.5,137.5C 324.656,133.236 323.989,129.236 322.5,125.5C 320.231,116.771 316.897,108.438 312.5,100.5C 310.033,93.5507 307.533,86.5507 305,79.5C 296.588,62.2817 286.422,46.2817 274.5,31.5 Z"/></g>
<g><path style="opacity:0.922" fill="#e3cae0" d="M 398.5,156.5 C 391.749,160.252 384.415,162.752 376.5,164C 371.401,166.647 366.068,168.813 360.5,170.5C 359.702,170.043 359.369,169.376 359.5,168.5C 365.19,165.944 370.856,163.611 376.5,161.5C 379.598,161.587 379.932,161.087 377.5,160C 380.099,159.231 382.599,159.398 385,160.5C 385.772,159.151 386.939,158.318 388.5,158C 391.793,157.174 395.126,156.674 398.5,156.5 Z"/></g>
<g><path style="opacity:0.996" fill="#dcbfd9" d="M 407.5,153.5 C 410.305,154.319 413.305,154.819 416.5,155C 410.564,156.97 404.564,157.47 398.5,156.5C 400.969,155.683 403.635,155.183 406.5,155C 404.5,154.667 402.5,154.333 400.5,154C 402.81,153.503 405.143,153.337 407.5,153.5 Z"/></g>
<g><path style="opacity:0.004" fill="#fefffe" d="M 376.5,161.5 C 375.833,160.167 375.833,160.167 376.5,161.5 Z"/></g>
<g><path style="opacity:1" fill="#852f7f" d="M 418.5,219.5 C 418.022,224.516 417.355,229.516 416.5,234.5C 416.52,235.726 416.853,236.726 417.5,237.5C 417.5,237.833 417.5,238.167 417.5,238.5C 415.665,239.122 414.498,240.456 414,242.5C 412.631,252.966 409.464,262.633 404.5,271.5C 395.921,292.431 382.587,309.931 364.5,324C 330.933,347.601 293.6,358.101 252.5,355.5C 288.481,340.371 318.981,317.705 344,287.5C 375.121,247.962 400.121,204.629 419,157.5C 421.033,178.187 420.866,198.853 418.5,219.5 Z"/></g>
<g><path style="opacity:0.651" fill="#ddbad9" d="M 91.5,155.5 C 100.121,155.581 108.621,157.247 117,160.5C 119.064,159.409 121.231,159.242 123.5,160C 122.5,160.333 121.5,160.667 120.5,161C 124.114,161.945 127.781,162.612 131.5,163C 133.067,165.741 135.401,166.908 138.5,166.5C 139.562,167.575 139.562,168.575 138.5,169.5C 125.367,163.967 111.7,160.467 97.5,159C 94.9807,158.414 92.9807,157.247 91.5,155.5 Z"/></g>
<g><path style="opacity:0.996" fill="#debedb" d="M 358.5,155.5 C 359.43,159.4 359.763,163.4 359.5,167.5C 358.883,167.389 358.383,167.056 358,166.5C 357.436,163.845 356.936,161.179 356.5,158.5C 356.64,156.97 357.307,155.97 358.5,155.5 Z"/></g>
<g><path style="opacity:0.569" fill="#f0e1ed" d="M 74.5,161.5 C 74.8174,164.572 74.4841,167.572 73.5,170.5C 72.8182,169.757 72.1515,169.091 71.5,168.5C 71.3379,166.473 71.5045,164.473 72,162.5C 72.6708,161.748 73.5041,161.414 74.5,161.5 Z"/></g>
<g><path style="opacity:0.82" fill="#d8b9d4" d="M 422.5,163.5 C 423.833,177.5 423.833,191.5 422.5,205.5C 421.167,191.5 421.167,177.5 422.5,163.5 Z"/></g>
<g><path style="opacity:0.965" fill="#bb7eb5" d="M 86.5,153.5 C 85.2825,154.161 83.9492,154.828 82.5,155.5C 83.6888,156.429 85.0222,156.762 86.5,156.5C 83.7131,157.477 80.7131,157.81 77.5,157.5C 76.71,158.609 76.21,159.942 76,161.5C 75.5001,173.495 75.3335,185.495 75.5,197.5C 74.71,196.391 74.21,195.058 74,193.5C 72.9808,195.502 72.1475,197.502 71.5,199.5C 71.5,189.167 71.5,178.833 71.5,168.5C 72.1515,169.091 72.8182,169.757 73.5,170.5C 74.4841,167.572 74.8174,164.572 74.5,161.5C 73.9285,160.027 73.9285,158.36 74.5,156.5C 75.6049,155.4 76.9382,154.733 78.5,154.5C 81.0545,153.612 83.7212,153.279 86.5,153.5 Z"/></g>
<g><path style="opacity:0.314" fill="#e5cce2" d="M 75.5,197.5 C 75.8912,205.861 76.5579,214.195 77.5,222.5C 77.7373,223.791 77.404,224.791 76.5,225.5C 75.6862,223.369 75.1862,221.036 75,218.5C 74.6667,220.5 74.3333,222.5 74,224.5C 73.6412,220.498 73.8079,216.498 74.5,212.5C 74.464,210.059 73.6307,208.059 72,206.5C 71.5034,204.19 71.3367,201.857 71.5,199.5C 72.1475,197.502 72.9808,195.502 74,193.5C 74.21,195.058 74.71,196.391 75.5,197.5 Z"/></g>
<g><path style="opacity:0.663" fill="#f4ebf3" d="M 422.5,211.5 C 422.5,213.167 422.5,214.833 422.5,216.5C 421.351,216.209 420.684,215.376 420.5,214C 420.684,212.624 421.351,211.791 422.5,211.5 Z"/></g>
<g><path style="opacity:0.008" fill="#c6adc3" d="M 421.5,218.5 C 421.091,224.502 420.591,230.502 420,236.5C 419.667,235.167 419.333,233.833 419,232.5C 418.802,234.382 418.302,236.048 417.5,237.5C 416.853,236.726 416.52,235.726 416.5,234.5C 417.355,229.516 418.022,224.516 418.5,219.5C 419.458,219.047 420.292,218.381 421,217.5C 421.399,217.728 421.565,218.062 421.5,218.5 Z"/></g>
<g><path style="opacity:0.992" fill="#d0a0cb" d="M 77.5,222.5 C 79.6552,228.911 81.3219,235.578 82.5,242.5C 81.1001,243.1 80.1001,244.1 79.5,245.5C 78.069,238.913 77.069,232.246 76.5,225.5C 77.404,224.791 77.7373,223.791 77.5,222.5 Z"/></g>
<g><path style="opacity:0.046" fill="#f7eff6" d="M 82.5,242.5 C 82.5,243.167 82.5,243.833 82.5,244.5C 82.1667,245.167 81.8333,245.833 81.5,246.5C 83.8418,247.211 84.1751,248.544 82.5,250.5C 80.7215,249.33 79.7215,247.664 79.5,245.5C 80.1001,244.1 81.1001,243.1 82.5,242.5 Z"/></g>
<g><path style="opacity:1" fill="#d2ac8c" d="M 276.5,245.5 C 293.361,245.128 310.361,244.794 327.5,244.5C 327.082,245.222 326.416,245.722 325.5,246C 309.169,246.14 292.836,245.974 276.5,245.5 Z"/></g>
<g><path style="opacity:0.004" fill="#b8b8b8" d="M 413.5,255.5 C 414.573,256.251 414.74,257.251 414,258.5C 413.517,257.552 413.351,256.552 413.5,255.5 Z"/></g>
<g><path style="opacity:0.004" fill="#fe00ff" d="M 412.5,259.5 C 413.833,260.167 413.833,260.167 412.5,259.5 Z"/></g>
<g><path style="opacity:0.882" fill="#ddbcd9" d="M 82.5,244.5 C 83.1174,244.611 83.6174,244.944 84,245.5C 85.739,252.214 87.5724,258.88 89.5,265.5C 88.8333,265.5 88.1667,265.5 87.5,265.5C 86.2776,262.074 84.7776,258.741 83,255.5C 82.5065,253.866 82.3398,252.199 82.5,250.5C 84.1751,248.544 83.8418,247.211 81.5,246.5C 81.8333,245.833 82.1667,245.167 82.5,244.5 Z"/></g>
<g><path style="opacity:0.004" fill="#000000" d="M 87.5,265.5 C 86.8333,266.167 86.8333,266.167 87.5,265.5 Z"/></g>
<g><path style="opacity:0.231" fill="#e5d1e2" d="M 417.5,238.5 C 417.034,244.787 415.701,250.453 413.5,255.5C 412.566,256.568 412.232,257.901 412.5,259.5C 412.216,263.549 410.55,267.049 407.5,270C 411.167,270.333 414.833,270.667 418.5,271C 414.5,271.333 410.5,271.667 406.5,272C 410.821,272.499 415.154,272.666 419.5,272.5C 414.944,274.442 409.944,275.108 404.5,274.5C 404.5,273.5 404.5,272.5 404.5,271.5C 409.464,262.633 412.631,252.966 414,242.5C 414.498,240.456 415.665,239.122 417.5,238.5 Z"/></g>
<g><path style="opacity:0.996" fill="#d1abcd" d="M 89.5,266.5 C 91.4456,267.035 92.4456,268.368 92.5,270.5C 92.2089,271.649 91.3756,272.316 90,272.5C 84.8756,273.494 79.709,274.161 74.5,274.5C 72.0478,274.461 70.0478,273.794 68.5,272.5C 71.1873,272.664 73.854,272.497 76.5,272C 74.1667,271.667 71.8333,271.333 69.5,271C 70.8333,270.833 72.1667,270.667 73.5,270.5C 78.1878,271.571 82.8545,271.571 87.5,270.5C 87.9943,268.974 88.661,267.641 89.5,266.5 Z"/></g>
<g><path style="opacity:1" fill="#a4579d" d="M 92.5,270.5 C 104.806,299.65 124.806,322.15 152.5,338C 180.471,351.833 210.138,358.5 241.5,358C 220.824,363.053 199.824,364.72 178.5,363C 116.278,355.64 60.1117,333.14 10,295.5C 9.51722,296.448 9.35055,297.448 9.5,298.5C 9.16667,298.5 8.83333,298.5 8.5,298.5C 8.33982,296.801 8.50649,295.134 9,293.5C 10.417,292.922 11.2504,291.922 11.5,290.5C 11.8333,290.5 12.1667,290.5 12.5,290.5C 12.7352,291.097 13.2352,291.43 14,291.5C 18.7882,289.792 23.6215,288.292 28.5,287C 29.8228,286.184 30.4894,285.017 30.5,283.5C 30.8333,283.5 31.1667,283.5 31.5,283.5C 35.4059,284.265 39.0725,283.432 42.5,281C 51.069,279.523 59.4023,277.356 67.5,274.5C 67.1373,273.817 66.8039,273.15 66.5,272.5C 67.1667,272.5 67.8333,272.5 68.5,272.5C 70.0478,273.794 72.0478,274.461 74.5,274.5C 79.709,274.161 84.8756,273.494 90,272.5C 91.3756,272.316 92.2089,271.649 92.5,270.5 Z"/></g>
<g><path style="opacity:0.004" fill="#fe00ff" d="M 47.5,277.5 C 46.8333,276.167 46.8333,276.167 47.5,277.5 Z"/></g>
<g><path style="opacity:0.569" fill="#e3c6e1" d="M 426.5,272.5 C 430.853,272.765 435.187,273.265 439.5,274C 446.832,277.079 454.332,279.579 462,281.5C 462.333,281.167 462.667,280.833 463,280.5C 465.14,282.808 467.64,284.474 470.5,285.5C 470.265,286.097 469.765,286.43 469,286.5C 462.747,284.527 456.58,282.36 450.5,280C 441.237,278.826 432.237,276.826 423.5,274C 424.737,273.768 425.737,273.268 426.5,272.5 Z"/></g>
<g><path style="opacity:0.004" fill="#fe00ff" d="M 450.5,276.5 C 451.833,277.167 451.833,277.167 450.5,276.5 Z"/></g>
<g><path style="opacity:0.996" fill="#ddbada" d="M 66.5,272.5 C 66.8039,273.15 67.1373,273.817 67.5,274.5C 59.4023,277.356 51.069,279.523 42.5,281C 39.0725,283.432 35.4059,284.265 31.5,283.5C 32.3351,282.057 33.6684,281.057 35.5,280.5C 39.6726,279.679 43.6726,278.679 47.5,277.5C 49.7743,277.285 51.941,276.618 54,275.5C 55.1074,275.585 56.1074,275.919 57,276.5C 57.3742,275.584 57.8742,274.75 58.5,274C 61.1677,273.433 63.8344,272.933 66.5,272.5 Z"/></g>
<g><path style="opacity:0.918" fill="#e1c4de" d="M 30.5,283.5 C 30.4894,285.017 29.8228,286.184 28.5,287C 23.6215,288.292 18.7882,289.792 14,291.5C 13.2352,291.43 12.7352,291.097 12.5,290.5C 12.8247,288.868 13.8247,287.868 15.5,287.5C 20.4356,285.913 25.4356,284.58 30.5,283.5 Z"/></g>
<g><path style="opacity:0.992" fill="#cf9fca" d="M 471.5,285.5 C 473.553,285.402 475.22,286.069 476.5,287.5C 475.167,287.833 475.167,288.167 476.5,288.5C 479.595,291.195 482.929,293.528 486.5,295.5C 480.112,294.09 475.112,290.757 471.5,285.5 Z"/></g>
<g><path style="opacity:0.086" fill="#e7d4e6" d="M 11.5,290.5 C 11.2504,291.922 10.417,292.922 9,293.5C 8.50649,295.134 8.33982,296.801 8.5,298.5C 7.88258,298.389 7.38258,298.056 7,297.5C 6.50454,295.527 6.33788,293.527 6.5,291.5C 8.2161,291.371 9.88277,291.038 11.5,290.5 Z"/></g>
<g><path style="opacity:0.004" fill="#fefffe" d="M 490.5,299.5 C 491.833,300.167 491.833,300.167 490.5,299.5 Z"/></g>
<g><path style="opacity:0.999" fill="#863080" d="M 487.5,299.5 C 463.959,335.564 432.626,362.23 393.5,379.5C 393.167,379.5 392.833,379.5 392.5,379.5C 392.265,378.903 391.765,378.57 391,378.5C 385.871,379.827 380.705,380.994 375.5,382C 375.167,382.333 374.833,382.667 374.5,383C 375.416,383.278 376.082,383.778 376.5,384.5C 375.5,384.5 374.5,384.5 373.5,384.5C 371.965,383.212 370.299,383.212 368.5,384.5C 368.863,385.183 369.196,385.85 369.5,386.5C 368.167,386.5 366.833,386.5 365.5,386.5C 363.365,384.631 360.698,383.964 357.5,384.5C 347.161,384.334 336.828,384.5 326.5,385C 325.944,385.383 325.611,385.883 325.5,386.5C 324.5,386.5 323.5,386.5 322.5,386.5C 322.5,385.5 322.5,384.5 322.5,383.5C 309.281,381.797 296.614,378.463 284.5,373.5C 273.913,369.567 263.579,364.9 253.5,359.5C 254.097,358.861 254.93,358.528 256,358.5C 281.172,362.403 306.338,362.236 331.5,358C 386.548,345.915 438.382,325.748 487,297.5C 487.464,298.094 487.631,298.761 487.5,299.5 Z"/></g>
<g><path style="opacity:0.725" fill="#e0c7dd" d="M 8.5,298.5 C 8.83333,298.5 9.16667,298.5 9.5,298.5C 16.7589,307.602 24.2589,316.602 32,325.5C 43.1089,336.117 54.2755,346.45 65.5,356.5C 62.2213,354.929 58.8879,353.262 55.5,351.5C 55.7093,350.914 56.0426,350.414 56.5,350C 53.2706,348.705 50.2706,347.039 47.5,345C 45.9467,341.691 43.6134,339.191 40.5,337.5C 28.6902,325.715 17.6902,313.215 7.5,300C 8.05596,299.617 8.38929,299.117 8.5,298.5 Z"/></g>
<g><path style="opacity:0.004" fill="#fefffe" d="M 40.5,337.5 C 39.8333,338.167 39.8333,338.167 40.5,337.5 Z"/></g>
<g><path style="opacity:0.004" fill="#000000" d="M 459.5,337.5 C 460.833,338.167 460.833,338.167 459.5,337.5 Z"/></g>
<g><path style="opacity:0.396" fill="#dfc3dc" d="M 65.5,356.5 C 70.5098,358.339 75.1765,360.839 79.5,364C 81.1742,365.506 82.1742,367.339 82.5,369.5C 76.3222,365.286 70.3222,361.452 64.5,358C 65.056,357.617 65.3893,357.117 65.5,356.5 Z"/></g>
<g><path style="opacity:0.059" fill="#cea9ca" d="M 246.5,357.5 C 248.873,357.138 251.207,357.805 253.5,359.5C 263.579,364.9 273.913,369.567 284.5,373.5C 283.167,373.5 282.5,374.167 282.5,375.5C 278.2,373.898 273.867,372.231 269.5,370.5C 266.099,370.299 263.599,368.632 262,365.5C 261.195,367.901 260.362,367.734 259.5,365C 255.398,364.271 251.898,362.438 249,359.5C 247.233,359.975 245.4,360.975 243.5,362.5C 242.791,361.596 241.791,361.263 240.5,361.5C 242.205,359.808 244.205,358.475 246.5,357.5 Z"/></g>
<g><path style="opacity:0.004" fill="#fefffe" d="M 269.5,370.5 C 268.833,371.167 268.833,371.167 269.5,370.5 Z"/></g>
<g><path style="opacity:0.267" fill="#e0c8dd" d="M 476.5,287.5 C 480.373,289.69 484.206,292.023 488,294.5C 488.333,294.167 488.667,293.833 489,293.5C 490.712,295.418 491.212,297.418 490.5,299.5C 487.533,303.506 484.866,307.84 482.5,312.5C 480.5,314.167 478.5,315.833 476.5,317.5C 476.005,320.47 474.505,322.804 472,324.5C 471.667,324.167 471.333,323.833 471,323.5C 469.097,325.441 468.264,327.774 468.5,330.5C 464.643,331.686 461.643,334.02 459.5,337.5C 458.167,337.833 458.167,338.167 459.5,338.5C 456.875,339.856 454.541,341.689 452.5,344C 453.654,344.914 453.487,345.747 452,346.5C 451.667,346.167 451.333,345.833 451,345.5C 450.517,346.448 450.351,347.448 450.5,348.5C 446.651,348.019 444.651,349.686 444.5,353.5C 443.127,353.343 441.793,353.51 440.5,354C 437.167,356 434.5,358.667 432.5,362C 428.37,362.906 425.036,364.906 422.5,368C 415.858,369.645 409.524,372.478 403.5,376.5C 400.402,376.413 400.068,376.913 402.5,378C 399.487,378.502 396.487,379.002 393.5,379.5C 432.626,362.23 463.959,335.564 487.5,299.5C 488.097,299.265 488.43,298.765 488.5,298C 487.944,296.989 487.278,296.156 486.5,295.5C 482.929,293.528 479.595,291.195 476.5,288.5C 476.5,288.167 476.5,287.833 476.5,287.5 Z"/></g>
<g><path style="opacity:0.008" fill="#fefffe" d="M 96.5,376.5 C 95.8333,377.167 95.8333,377.167 96.5,376.5 Z"/></g>
<g><path style="opacity:0.965" fill="#dbc4d9" d="M 240.5,361.5 C 241.791,361.263 242.791,361.596 243.5,362.5C 235.364,367.543 227.031,372.21 218.5,376.5C 215.402,376.413 215.068,376.913 217.5,378C 211.082,379.378 204.748,381.045 198.5,383C 199.5,383.333 200.5,383.667 201.5,384C 199.866,384.494 198.199,384.66 196.5,384.5C 196.389,383.883 196.056,383.383 195.5,383C 199.372,380.819 203.538,379.319 208,378.5C 215.679,373.638 223.679,370.305 232,368.5C 234.221,365.322 237.054,362.988 240.5,361.5 Z"/></g>
<g><path style="opacity:0.004" fill="#fefffe" d="M 218.5,376.5 C 219.833,377.167 219.833,377.167 218.5,376.5 Z"/></g>
<g><path style="opacity:0.008" fill="#fefffe" d="M 403.5,376.5 C 404.833,377.167 404.833,377.167 403.5,376.5 Z"/></g>
<g><path style="opacity:0.729" fill="#e2cee0" d="M 284.5,373.5 C 296.614,378.463 309.281,381.797 322.5,383.5C 322.5,384.5 322.5,385.5 322.5,386.5C 316.971,385.04 311.304,384.207 305.5,384C 307.167,383.667 308.833,383.333 310.5,383C 301.829,381.332 293.163,379.665 284.5,378C 282.822,377.516 282.156,376.683 282.5,375.5C 282.5,374.167 283.167,373.5 284.5,373.5 Z"/></g>
<g><path style="opacity:0.541" fill="#d5b2cc" d="M 392.5,379.5 C 388.491,381.421 384.157,382.588 379.5,383C 381.167,383.333 382.833,383.667 384.5,384C 381.854,384.497 379.187,384.664 376.5,384.5C 376.082,383.778 375.416,383.278 374.5,383C 374.833,382.667 375.167,382.333 375.5,382C 380.705,380.994 385.871,379.827 391,378.5C 391.765,378.57 392.265,378.903 392.5,379.5 Z"/></g>
<g><path style="opacity:0.537" fill="#ebdfea" d="M 194.5,384.5 C 193.71,385.401 192.71,386.068 191.5,386.5C 191.196,385.85 190.863,385.183 190.5,384.5C 191.958,383.218 193.292,383.218 194.5,384.5 Z"/></g>
<g><path style="opacity:0.124" fill="#f3ecf3" d="M 373.5,384.5 C 372.713,386.104 371.38,386.771 369.5,386.5C 369.196,385.85 368.863,385.183 368.5,384.5C 370.299,383.212 371.965,383.212 373.5,384.5 Z"/></g>
<g><path style="opacity:0.765" fill="#b37fb0" d="M 357.5,384.5 C 356.5,385.167 355.5,385.833 354.5,386.5C 344.833,386.5 335.167,386.5 325.5,386.5C 325.611,385.883 325.944,385.383 326.5,385C 336.828,384.5 347.161,384.334 357.5,384.5 Z"/></g>
<g><path style="opacity:0.204" fill="#dbbed9" d="M 129.5,386.5 C 126.482,386.665 123.482,386.498 120.5,386C 119.874,385.25 119.374,384.416 119,383.5C 116.936,384.591 114.769,384.758 112.5,384C 113.5,383.667 114.5,383.333 115.5,383C 111.833,382 108.167,381 104.5,380C 103.333,379.5 102.5,378.667 102,377.5C 100.612,378.554 99.1124,378.72 97.5,378C 98.7119,376.893 98.3786,376.393 96.5,376.5C 92.0498,374.441 87.7164,372.107 83.5,369.5C 83.369,368.761 83.5357,368.094 84,367.5C 87.5003,368.776 90.6669,370.609 93.5,373C 104.562,378.021 116.062,381.854 128,384.5C 129.03,384.836 129.53,385.503 129.5,386.5 Z"/></g>
<g><path style="opacity:0.192" fill="#dec5dc" d="M 189.5,386.5 C 185.833,387.167 182.167,387.833 178.5,388.5C 180.507,385.765 183.34,384.432 187,384.5C 188.376,384.684 189.209,385.351 189.5,386.5 Z"/></g>
<g><path style="opacity:0.179" fill="#e8dae7" d="M 357.5,384.5 C 360.698,383.964 363.365,384.631 365.5,386.5C 361.833,386.5 358.167,386.5 354.5,386.5C 355.5,385.833 356.5,385.167 357.5,384.5 Z"/></g>
<g><path style="opacity:0.004" fill="#fcfbfc" d="M 130.5,386.5 C 132.786,386.595 134.786,387.262 136.5,388.5C 133.99,388.946 131.99,388.28 130.5,386.5 Z"/></g>
<g><path style="opacity:0.416" fill="#d2b1d0" d="M 145.5,388.5 C 142.833,388.5 140.167,388.5 137.5,388.5C 138.334,387.252 139.667,386.585 141.5,386.5C 143.333,386.585 144.666,387.252 145.5,388.5 Z"/></g>
<g><path style="opacity:0.351" fill="#e2c9e0" d="M 177.5,388.5 C 174.167,388.5 170.833,388.5 167.5,388.5C 167.611,387.883 167.944,387.383 168.5,387C 171.167,386.333 173.833,386.333 176.5,387C 177.056,387.383 177.389,387.883 177.5,388.5 Z"/></g>
<g><path style="opacity:0.413" fill="#f2e6f1" d="M 165.5,388.5 C 160.167,389.833 154.833,389.833 149.5,388.5C 154.833,387.167 160.167,387.167 165.5,388.5 Z"/></g>
<g><path style="opacity:0.888" fill="#5d1c56" d="M 311.5,388.5 C 313.844,388.506 315.178,389.673 315.5,392C 311.496,402.514 308.663,413.347 307,424.5C 306.421,434.18 306.588,443.847 307.5,453.5C 305.097,453.607 303.264,452.607 302,450.5C 301.002,443.533 300.336,436.533 300,429.5C 298.333,432.833 296.667,436.167 295,439.5C 292.199,442.796 289.199,443.129 286,440.5C 281.881,430.469 283.715,421.636 291.5,414C 295.986,411.417 299.152,412.584 301,417.5C 303.232,407.297 306.732,397.63 311.5,388.5 Z M 294.5,415.5 C 296.456,417.032 297.456,419.199 297.5,422C 290.549,438.938 288.715,438.104 292,419.5C 293.095,418.307 293.928,416.973 294.5,415.5 Z"/></g>
<g><path style="opacity:0.867" fill="#5e1c56" d="M 150.5,390.5 C 155.748,391.629 158.081,394.962 157.5,400.5C 157.082,404.843 156.582,409.176 156,413.5C 152.534,426.028 149.701,438.695 147.5,451.5C 147.833,452.833 148.167,454.167 148.5,455.5C 150.167,454.167 151.833,452.833 153.5,451.5C 154.001,458.663 150.668,461.663 143.5,460.5C 140.954,458.242 139.621,455.408 139.5,452C 143.274,433.083 147.107,414.25 151,395.5C 147.833,400 144.667,404.5 141.5,409C 142.095,412.512 141.595,416.012 140,419.5C 137.455,427.478 133.955,434.978 129.5,442C 125.074,443.252 122.408,441.586 121.5,437C 123.118,432.25 123.951,427.417 124,422.5C 118.937,430.037 114.437,437.871 110.5,446C 106.586,446.957 104.086,445.457 103,441.5C 104.67,427.978 106.837,414.478 109.5,401C 109.546,399.272 109.046,397.772 108,396.5C 98.6774,403.817 94.1774,413.484 94.5,425.5C 93.9914,429.838 94.9914,433.671 97.5,437C 96.1269,438.479 94.6269,438.312 93,436.5C 88.9618,420.486 92.7952,406.653 104.5,395C 108.851,393.071 112.351,394.238 115,398.5C 114.892,409.561 114.226,420.561 113,431.5C 117.371,424.32 121.871,417.32 126.5,410.5C 128.601,410.632 130.101,411.632 131,413.5C 131.333,417.833 131.667,422.167 132,426.5C 135.181,418.114 138.514,409.781 142,401.5C 144.358,397.442 147.192,393.775 150.5,390.5 Z"/></g>
<g><path style="opacity:0.851" fill="#5d1c55" d="M 359.5,390.5 C 363.134,390.157 364.801,391.823 364.5,395.5C 362.549,412.091 358.883,428.257 353.5,444C 359.19,444.469 364.857,445.136 370.5,446C 371.821,447.545 371.488,448.711 369.5,449.5C 363.155,447.913 356.989,448.246 351,450.5C 348.302,449.451 346.802,447.451 346.5,444.5C 352.072,426.787 356.405,408.787 359.5,390.5 Z"/></g>
<g><path style="opacity:0.766" fill="#5d1c55" d="M 187.5,400.5 C 193.789,401.636 194.122,403.969 188.5,407.5C 187.28,407.113 186.613,406.28 186.5,405C 187.148,403.56 187.481,402.06 187.5,400.5 Z"/></g>
<g><path style="opacity:0.866" fill="#5d1c55" d="M 217.5,445.5 C 217.5,444.833 217.167,444.5 216.5,444.5C 215.441,439.198 215.275,433.864 216,428.5C 212.522,433.279 208.689,437.779 204.5,442C 197.598,443.041 193.931,440.041 193.5,433C 194.362,424.737 197.362,417.404 202.5,411C 207.458,409.31 210.458,410.977 211.5,416C 209.971,422.864 206.138,428.031 200,431.5C 199.18,433.728 199.513,435.728 201,437.5C 206.591,433.914 211.591,429.58 216,424.5C 217.26,419.341 218.426,414.174 219.5,409C 221.701,408.175 223.534,408.675 225,410.5C 224.558,418.077 226.058,418.91 229.5,413C 230.944,412.219 232.277,412.386 233.5,413.5C 226.504,423.482 221.837,434.482 219.5,446.5C 218.817,446.137 218.15,445.804 217.5,445.5 Z M 206.5,413.5 C 207.641,416.953 206.641,419.953 203.5,422.5C 203.799,419.598 204.799,416.598 206.5,413.5 Z"/></g>
<g><path style="opacity:0.86" fill="#5d1c55" d="M 258.5,409.5 C 264.616,408.757 267.45,411.423 267,417.5C 265.078,420.089 262.911,420.589 260.5,419C 263.059,417.677 263.725,415.843 262.5,413.5C 260.317,414.692 258.984,416.525 258.5,419C 260.651,422.49 262.818,425.99 265,429.5C 268.337,436.166 267.504,442.333 262.5,448C 254.667,450.742 250.334,447.908 249.5,439.5C 249.536,435.089 251.369,431.755 255,429.5C 255.5,429.667 256,429.833 256.5,430C 252.402,435.865 252.902,441.365 258,446.5C 261.001,444.154 262.001,441.154 261,437.5C 259.377,433.29 257.377,429.29 255,425.5C 250.878,431.291 246.378,436.791 241.5,442C 234.598,443.041 230.931,440.041 230.5,433C 231.362,424.737 234.362,417.404 239.5,411C 244.458,409.31 247.458,410.977 248.5,416C 246.971,422.864 243.138,428.031 237,431.5C 236.18,433.728 236.513,435.728 238,437.5C 244.093,433.411 249.593,428.578 254.5,423C 252.338,417.353 253.671,412.853 258.5,409.5 Z M 243.5,413.5 C 244.641,416.953 243.641,419.953 240.5,422.5C 240.799,419.598 241.799,416.598 243.5,413.5 Z"/></g>
<g><path style="opacity:0.858" fill="#5d1c55" d="M 319.5,410.5 C 324.463,409.318 327.463,411.152 328.5,416C 326.971,422.864 323.138,428.031 317,431.5C 316.18,433.728 316.513,435.728 318,437.5C 323.926,433.579 329.259,428.912 334,423.5C 334.5,424 335,424.5 335.5,425C 331.211,430.958 326.544,436.624 321.5,442C 314.598,443.041 310.931,440.041 310.5,433C 311.46,424.607 314.46,417.107 319.5,410.5 Z M 323.5,413.5 C 324.641,416.953 323.641,419.953 320.5,422.5C 320.799,419.598 321.799,416.598 323.5,413.5 Z"/></g>
<g><path style="opacity:0.896" fill="#5d1c56" d="M 406.5,410.5 C 410.294,411.445 411.794,413.779 411,417.5C 406.833,424.5 402.667,431.5 398.5,438.5C 402.654,439.164 406.654,440.331 410.5,442C 412.229,443.789 412.896,445.956 412.5,448.5C 411.5,448.5 410.5,448.5 409.5,448.5C 409.5,447.167 409.5,445.833 409.5,444.5C 404.124,444.265 398.791,444.598 393.5,445.5C 391.003,444.871 389.67,443.204 389.5,440.5C 393.594,432.563 397.928,424.729 402.5,417C 400.187,417.149 397.853,417.649 395.5,418.5C 393.603,418.272 392.27,417.272 391.5,415.5C 396.726,414.201 401.726,412.534 406.5,410.5 Z"/></g>
<g><path style="opacity:0.859" fill="#5d1c55" d="M 216.5,444.5 C 217.167,444.5 217.5,444.833 217.5,445.5C 217.719,446.675 217.386,447.675 216.5,448.5C 213.09,446.521 209.423,446.021 205.5,447C 198.96,448.124 192.627,449.958 186.5,452.5C 184.098,461.776 180.932,470.776 177,479.5C 172.144,483.785 168.144,483.118 165,477.5C 164.077,471.67 165.744,466.67 170,462.5C 178.14,455.751 181.807,447.084 181,436.5C 179.321,439.513 176.987,441.846 174,443.5C 173.228,443.355 172.561,443.022 172,442.5C 171.333,440.5 170.667,438.5 170,436.5C 168.062,441.458 164.562,443.291 159.5,442C 156.595,433.884 157.429,426.051 162,418.5C 165.092,416.818 167.259,417.651 168.5,421C 165.961,426.274 164.461,431.774 164,437.5C 167.207,432.392 170.873,427.726 175,423.5C 175.333,423.833 175.667,424.167 176,424.5C 175.875,429.196 175.542,433.863 175,438.5C 177.341,435.329 179.841,432.329 182.5,429.5C 183.962,424.188 185.295,418.855 186.5,413.5C 190.49,412.824 192.157,414.49 191.5,418.5C 190.037,429.24 188.537,439.906 187,450.5C 196.472,445.973 206.306,443.973 216.5,444.5 Z M 175.5,460.5 C 176.097,460.735 176.43,461.235 176.5,462C 175.589,465.145 174.755,468.312 174,471.5C 173.415,474.62 172.081,477.287 170,479.5C 168.133,478.623 166.966,477.123 166.5,475C 168.872,469.752 171.872,464.919 175.5,460.5 Z"/></g>
<g><path style="opacity:0.863" fill="#5d1c55" d="M 370.5,417.5 C 373.93,416.755 375.597,418.089 375.5,421.5C 373.589,426.383 372.422,431.383 372,436.5C 375.031,431.761 378.531,427.428 382.5,423.5C 383.946,424.171 384.612,425.338 384.5,427C 379.342,442.163 381.009,443.163 389.5,430C 390.332,429.312 390.998,429.479 391.5,430.5C 389.826,436.214 386.493,440.547 381.5,443.5C 379.3,441.747 378.133,439.414 378,436.5C 375.255,442.227 371.255,443.56 366,440.5C 364.463,432.349 365.963,424.683 370.5,417.5 Z"/></g>
</svg>
